<svg xmlns="http://www.w3.org/2000/svg" width="1200" height="340" viewBox="0 0 1200 340" role="img" aria-labelledby="title desc">
<title id="title">How to tie a Uni knot</title><desc id="desc">Four numbered line drawings show threading the eye, forming a loop, making wraps, and sliding the tightened knot to the eye.</desc>
<rect width="1200" height="340" fill="#f7fbfc"/><g font-family="Arial,sans-serif"><g fill="#e7f2f3"><rect x="12" y="12" width="282" height="316" rx="16"/><rect x="310" y="12" width="282" height="316" rx="16"/><rect x="608" y="12" width="282" height="316" rx="16"/><rect x="906" y="12" width="282" height="316" rx="16"/></g><g fill="#07566c" font-size="17" font-weight="700"><text x="34" y="44">1  Thread the eye</text><text x="332" y="44">2  Form a loop</text><text x="630" y="44">3  Wrap 5–7 times</text><text x="928" y="44">4  Slide down and tighten</text></g></g>
<g fill="none" stroke-linecap="round" stroke-linejoin="round"><g stroke="#3d5158" stroke-width="8"><circle cx="232" cy="171" r="22"/><path d="M232 193v65q0 39 27 16q15-13 0-28"/></g><path d="M38 158h166q28 0 28 13q0 15-28 15h-92" stroke="#087a8b" stroke-width="7"/><path d="M112 186H53" stroke="#e19a18" stroke-width="5"/>
<g stroke="#3d5158" stroke-width="8"><circle cx="530" cy="194" r="22"/><path d="M530 216v50q0 39 26 16q15-13 0-27"/></g><path d="M334 153h168q28 0 28 41" stroke="#087a8b" stroke-width="7"/><path d="M530 194q-28 0-51-40q-27-47-86-10q-55 35-20 82q27 35 97 6" stroke="#e19a18" stroke-width="5"/>
<g stroke="#3d5158" stroke-width="8"><circle cx="828" cy="215" r="22"/><path d="M828 237v39q0 37 25 15q14-13 0-26"/></g><path d="M632 157h168q28 0 28 58" stroke="#087a8b" stroke-width="7"/><path d="M828 215q-31-1-49-42q-21-47-78-22q-46 21-41 70q4 35 51 35" stroke="#e19a18" stroke-width="5"/><g stroke="#07566c" stroke-width="4"><path d="M714 142l18 34M702 146l18 34M691 151l17 34M680 158l17 33M669 167l17 32"/></g>
<g stroke="#3d5158" stroke-width="8"><circle cx="1124" cy="184" r="22"/><path d="M1124 206v54q0 39 26 16q15-13 0-27"/></g><path d="M930 166h158q30 0 36 18" stroke="#087a8b" stroke-width="7"/><path d="M930 200h150q27 0 44-16" stroke="#e19a18" stroke-width="5"/><g stroke="#07566c" stroke-width="4"><path d="M1060 153l15 38M1069 151l15 38M1078 151l15 36M1087 153l13 31"/></g></g>
</svg>
